<?xml version="1.0" encoding="UTF-8"?>
<svg xmlns="http://www.w3.org/2000/svg" xmlns:xlink="http://www.w3.org/1999/xlink" width="785pt" height="477pt" viewBox="0 0 785 477" version="1.1">
<g id="surface1">
<path style=" stroke:none;fill-rule:nonzero;fill:rgb(60%,67.843137%,97.647059%);fill-opacity:1;" d="M 565.199219 310.527344 C 518.886719 347.734375 317.140625 341.769531 262.582031 301.464844 C 207.632812 261.394531 300.261719 187.222656 401.136719 190.085938 C 502.007812 193.183594 611.121094 273.320312 565.199219 310.527344 Z M 565.199219 310.527344 "/>
<path style=" stroke:none;fill-rule:nonzero;fill:rgb(0%,0%,0%);fill-opacity:1;" d="M 351.660156 263.199219 C 351.660156 264.90625 351.261719 266.46875 350.460938 267.878906 C 349.6875 269.265625 348.5 270.386719 346.902344 271.238281 C 345.328125 272.066406 343.394531 272.480469 341.101562 272.480469 L 337.222656 272.480469 L 337.222656 282 L 329.382812 282 L 329.382812 253.800781 L 341.101562 253.800781 C 343.367188 253.800781 345.289062 254.199219 346.859375 255 C 348.460938 255.800781 349.660156 256.90625 350.460938 258.320312 C 351.261719 259.734375 351.660156 261.359375 351.660156 263.199219 Z M 340.339844 266.238281 C 342.554688 266.238281 343.660156 265.226562 343.660156 263.199219 C 343.660156 261.148438 342.554688 260.121094 340.339844 260.121094 L 337.222656 260.121094 L 337.222656 266.238281 Z M 362.652344 263.519531 C 363.53125 262.238281 364.597656 261.226562 365.851562 260.480469 C 367.105469 259.734375 368.449219 259.359375 369.890625 259.359375 L 369.890625 267.71875 L 367.691406 267.71875 C 365.984375 267.71875 364.71875 268.054688 363.890625 268.71875 C 363.0625 269.386719 362.652344 270.546875 362.652344 272.199219 L 362.652344 282 L 354.8125 282 L 354.8125 259.558594 L 362.652344 259.558594 Z M 383.140625 282.28125 C 380.902344 282.28125 378.886719 281.8125 377.101562 280.878906 C 375.339844 279.945312 373.953125 278.613281 372.941406 276.878906 C 371.929688 275.148438 371.421875 273.105469 371.421875 270.761719 C 371.421875 268.441406 371.929688 266.414062 372.941406 264.679688 C 373.980469 262.945312 375.382812 261.613281 377.140625 260.679688 C 378.929688 259.746094 380.941406 259.28125 383.179688 259.28125 C 385.421875 259.28125 387.421875 259.746094 389.179688 260.679688 C 390.96875 261.613281 392.367188 262.945312 393.382812 264.679688 C 394.421875 266.414062 394.941406 268.441406 394.941406 270.761719 C 394.941406 273.078125 394.421875 275.121094 393.382812 276.878906 C 392.367188 278.613281 390.96875 279.945312 389.179688 280.878906 C 387.394531 281.8125 385.382812 282.28125 383.140625 282.28125 Z M 383.140625 275.480469 C 384.234375 275.480469 385.140625 275.078125 385.859375 274.28125 C 386.609375 273.453125 386.980469 272.28125 386.980469 270.761719 C 386.980469 269.238281 386.609375 268.078125 385.859375 267.28125 C 385.140625 266.480469 384.246094 266.078125 383.179688 266.078125 C 382.113281 266.078125 381.222656 266.480469 380.5 267.28125 C 379.78125 268.078125 379.421875 269.238281 379.421875 270.761719 C 379.421875 272.308594 379.769531 273.480469 380.460938 274.28125 C 381.15625 275.078125 382.046875 275.480469 383.140625 275.480469 Z M 402.050781 257.480469 C 400.664062 257.480469 399.542969 257.105469 398.691406 256.359375 C 397.863281 255.585938 397.449219 254.628906 397.449219 253.480469 C 397.449219 252.308594 397.863281 251.332031 398.691406 250.558594 C 399.542969 249.785156 400.664062 249.398438 402.050781 249.398438 C 403.410156 249.398438 404.503906 249.785156 405.332031 250.558594 C 406.183594 251.332031 406.609375 252.308594 406.609375 253.480469 C 406.609375 254.628906 406.183594 255.585938 405.332031 256.359375 C 404.503906 257.105469 403.410156 257.480469 402.050781 257.480469 Z M 405.972656 284.199219 C 405.972656 289.878906 403.117188 292.71875 397.410156 292.71875 L 394.570312 292.71875 L 394.570312 286.039062 L 396.25 286.039062 C 396.917969 286.039062 397.398438 285.90625 397.691406 285.640625 C 397.984375 285.371094 398.132812 284.933594 398.132812 284.320312 L 398.132812 259.558594 L 405.972656 259.558594 Z M 431.835938 270.519531 C 431.835938 271.132812 431.796875 271.746094 431.71875 272.359375 L 416.878906 272.359375 C 416.957031 273.585938 417.289062 274.507812 417.878906 275.121094 C 418.488281 275.707031 419.261719 276 420.195312 276 C 421.503906 276 422.4375 275.414062 422.996094 274.238281 L 431.355469 274.238281 C 431.011719 275.785156 430.328125 277.171875 429.316406 278.398438 C 428.328125 279.601562 427.078125 280.546875 425.558594 281.238281 C 424.035156 281.933594 422.355469 282.28125 420.515625 282.28125 C 418.304688 282.28125 416.328125 281.8125 414.597656 280.878906 C 412.890625 279.945312 411.542969 278.613281 410.558594 276.878906 C 409.597656 275.148438 409.117188 273.105469 409.117188 270.761719 C 409.117188 268.414062 409.597656 266.386719 410.558594 264.679688 C 411.515625 262.945312 412.851562 261.613281 414.558594 260.679688 C 416.289062 259.746094 418.277344 259.28125 420.515625 259.28125 C 422.730469 259.28125 424.691406 259.734375 426.398438 260.640625 C 428.101562 261.546875 429.4375 262.851562 430.398438 264.558594 C 431.355469 266.238281 431.835938 268.226562 431.835938 270.519531 Z M 423.835938 268.558594 C 423.835938 267.601562 423.515625 266.851562 422.878906 266.320312 C 422.238281 265.761719 421.4375 265.480469 420.476562 265.480469 C 419.515625 265.480469 418.730469 265.746094 418.117188 266.28125 C 417.503906 266.785156 417.101562 267.546875 416.917969 268.558594 Z M 433.765625 270.761719 C 433.765625 268.441406 434.246094 266.414062 435.203125 264.679688 C 436.164062 262.945312 437.496094 261.613281 439.203125 260.679688 C 440.9375 259.746094 442.910156 259.28125 445.125 259.28125 C 447.976562 259.28125 450.378906 260.066406 452.324219 261.640625 C 454.273438 263.1875 455.523438 265.359375 456.085938 268.160156 L 447.765625 268.160156 C 447.285156 266.691406 446.351562 265.960938 444.964844 265.960938 C 443.976562 265.960938 443.191406 266.371094 442.605469 267.199219 C 442.046875 268 441.765625 269.1875 441.765625 270.761719 C 441.765625 272.332031 442.046875 273.53125 442.605469 274.359375 C 443.191406 275.1875 443.976562 275.601562 444.964844 275.601562 C 446.378906 275.601562 447.3125 274.867188 447.765625 273.398438 L 456.085938 273.398438 C 455.523438 276.171875 454.273438 278.347656 452.324219 279.921875 C 450.378906 281.492188 447.976562 282.28125 445.125 282.28125 C 442.910156 282.28125 440.9375 281.8125 439.203125 280.878906 C 437.496094 279.945312 436.164062 278.613281 435.203125 276.878906 C 434.246094 275.148438 433.765625 273.105469 433.765625 270.761719 Z M 472.582031 275.320312 L 472.582031 282 L 469.183594 282 C 463.449219 282 460.582031 279.160156 460.582031 273.480469 L 460.582031 266.078125 L 457.820312 266.078125 L 457.820312 259.558594 L 460.582031 259.558594 L 460.582031 254.121094 L 468.460938 254.121094 L 468.460938 259.558594 L 472.542969 259.558594 L 472.542969 266.078125 L 468.460938 266.078125 L 468.460938 273.601562 C 468.460938 274.214844 468.59375 274.652344 468.863281 274.921875 C 469.15625 275.1875 469.636719 275.320312 470.300781 275.320312 Z M 485.738281 282.28125 C 483.710938 282.28125 481.898438 281.945312 480.296875 281.28125 C 478.726562 280.585938 477.472656 279.652344 476.539062 278.480469 C 475.632812 277.28125 475.125 275.933594 475.019531 274.441406 L 482.617188 274.441406 C 482.726562 275.160156 483.058594 275.71875 483.617188 276.121094 C 484.179688 276.519531 484.871094 276.71875 485.699219 276.71875 C 486.339844 276.71875 486.84375 276.585938 487.21875 276.320312 C 487.589844 276.054688 487.777344 275.707031 487.777344 275.28125 C 487.777344 274.71875 487.472656 274.308594 486.859375 274.039062 C 486.246094 273.773438 485.230469 273.480469 483.816406 273.160156 C 482.21875 272.839844 480.886719 272.480469 479.816406 272.078125 C 478.75 271.679688 477.816406 271.027344 477.019531 270.121094 C 476.246094 269.214844 475.859375 267.988281 475.859375 266.441406 C 475.859375 265.105469 476.21875 263.90625 476.9375 262.839844 C 477.65625 261.746094 478.710938 260.878906 480.097656 260.238281 C 481.511719 259.601562 483.203125 259.28125 485.179688 259.28125 C 488.109375 259.28125 490.417969 260 492.097656 261.441406 C 493.777344 262.878906 494.75 264.773438 495.019531 267.121094 L 487.9375 267.121094 C 487.804688 266.398438 487.484375 265.851562 486.976562 265.480469 C 486.496094 265.078125 485.84375 264.878906 485.019531 264.878906 C 484.378906 264.878906 483.886719 265 483.539062 265.238281 C 483.21875 265.480469 483.058594 265.8125 483.058594 266.238281 C 483.058594 266.773438 483.363281 267.1875 483.976562 267.480469 C 484.589844 267.746094 485.578125 268.027344 486.9375 268.320312 C 488.566406 268.667969 489.910156 269.054688 490.976562 269.480469 C 492.070312 269.90625 493.019531 270.601562 493.816406 271.558594 C 494.644531 272.492188 495.058594 273.773438 495.058594 275.398438 C 495.058594 276.707031 494.671875 277.878906 493.898438 278.921875 C 493.152344 279.960938 492.070312 280.785156 490.65625 281.398438 C 489.269531 281.988281 487.632812 282.28125 485.738281 282.28125 Z M 485.738281 282.28125 "/>
</g>
</svg>
