<svg width="358" height="62" viewBox="0 0 358 62" fill="none" xmlns="http://www.w3.org/2000/svg">
<path d="M3.9375 0H59.0625L54.0488 55.7044L31.4396 62L8.95913 55.7018L3.9375 0ZM22.3939 25.1875L21.7849 18.166L48.1898 18.1737L48.7935 11.4002L14.2065 11.3925L16.0388 32.085H39.9945L39.1387 40.9355L31.5 43.0125L23.7431 40.92L23.2496 35.4692H16.401L17.2673 46.2442L31.5 49.9901L45.6199 46.2623L47.5729 25.1901H22.3939V25.1875Z" fill="#C7DAFF"/>
<path d="M102.271 0H157.396L152.382 55.7044L129.773 62L107.29 55.7018L102.271 0ZM147.132 11.4002L112.535 11.3925L113.094 18.166L139.672 18.1712L139.002 25.1875H121.572L122.202 31.8344H138.43L137.469 40.9355L129.831 43.0125L122.071 40.92L121.578 35.4692H114.726L115.488 45.4279L129.833 49.8273L143.937 45.8748L147.132 11.4028V11.4002Z" fill="#C7DAFF"/>
<g clip-path="url(#clip0)">
<path d="M196.667 0H259.667V62H196.667V0ZM254.506 47.213C254.047 44.3842 252.175 42.0076 246.623 39.7911C244.691 38.8998 242.544 38.2798 241.906 36.8461C241.667 35.9936 241.63 35.5286 241.785 35.0248C242.179 33.356 244.187 32.8548 245.762 33.3198C246.786 33.6298 247.731 34.4048 248.324 35.6448C251.038 33.8985 251.038 33.8985 252.931 32.7386C252.222 31.6536 251.87 31.186 251.393 30.7236C249.739 28.9023 247.536 27.9723 243.953 28.0524L242.103 28.2823C240.328 28.7086 238.638 29.6386 237.614 30.8786C234.622 34.2137 235.485 40.0262 239.108 42.4287C242.691 45.0637 247.93 45.6423 248.6 48.1249C249.23 51.1474 246.316 52.1162 243.439 51.7674C241.31 51.3024 240.131 50.2536 238.832 48.3161L234.028 51.0312C234.58 52.2712 235.21 52.8111 236.155 53.8961C240.722 58.4324 252.141 58.1999 254.191 51.3024C254.267 51.0699 254.821 49.4812 254.385 47.0399L254.506 47.213ZM230.925 28.4967H225.025C225.025 33.5033 225.001 38.4787 225.001 43.493C225.001 46.6757 225.166 49.5974 224.639 50.4964C223.772 52.2763 221.541 52.049 220.528 51.7364C219.488 51.2301 218.961 50.5326 218.349 49.5277C218.184 49.2564 218.06 49.0213 218.016 49.0213L213.225 51.9276C214.026 53.5551 215.194 54.9552 216.701 55.8465C218.945 57.164 221.961 57.5903 225.119 56.8927C227.174 56.3089 228.946 55.1077 229.873 53.2477C231.212 50.8452 230.928 47.9002 230.915 44.6038C230.947 39.2977 230.915 33.9889 230.915 28.6414L230.925 28.4967Z" fill="#C7DAFF"/>
</g>
<path d="M325.896 28.5396H321.135V18.6914H326.783C329.855 18.6914 331.598 20.3836 331.598 23.4437C331.598 26.7113 329.569 28.5396 325.891 28.5396H325.896ZM326.747 32.449H321.137V43.3021H326.993C330.823 43.3021 332.853 41.4057 332.853 37.8399C332.853 34.2741 330.766 32.449 326.747 32.449ZM358 29.0258V32.9742C355.039 33.3243 353.23 36.0343 352.157 40.3263C351.088 44.602 350.941 49.847 351.054 53.8958C351.172 58.11 348.513 62 344.92 62H308.086C304.489 62 301.83 58.11 301.951 53.8958C302.064 49.847 301.917 44.602 300.848 40.3263C299.772 36.0343 297.961 33.3243 295 32.9742V29.0258C297.961 28.6757 299.775 25.9657 300.846 21.6737C301.917 17.398 302.064 12.153 301.948 8.10415C301.83 3.88999 304.489 0 308.086 0H344.92C348.516 0 351.172 3.88999 351.054 8.10415C350.941 12.153 351.088 17.398 352.157 21.6737C353.23 25.9657 355.039 28.6757 358 29.0258ZM337.192 38.1576C337.192 33.7684 334.69 30.5948 330.976 30.0923V29.9076C333.706 29.3597 335.848 26.2283 335.848 22.7338C335.848 17.7513 332.663 14.5064 327.81 14.5064H316.89V47.4806H327.865C333.687 47.4806 337.192 43.9602 337.192 38.1576Z" fill="#C7DAFF"/>
<defs>
<clipPath id="clip0">
<rect width="63" height="62" fill="white" transform="translate(196.667)"/>
</clipPath>
</defs>
</svg>
